<svg width="34" height="34" viewBox="0 0 34 34" fill="none" xmlns="http://www.w3.org/2000/svg">
<path d="M24.1439 33.9999C22.9533 33.9999 21.9289 33.7198 21.0705 33.1593C20.2122 32.5991 19.5615 31.7165 19.1185 30.512C18.8416 29.6993 18.6478 28.705 18.537 27.5284C18.4263 26.3516 18.3571 25.1189 18.3294 23.8302C18.3017 22.5135 18.274 21.2387 18.2463 20.006C18.2463 19.6698 18.1633 19.5018 17.9971 19.5018C17.8587 19.5018 17.7202 19.6138 17.5818 19.8379C17.0557 20.8185 16.4327 21.9391 15.7128 23.1998C15.0206 24.4605 14.3284 25.7212 13.6362 26.9819C12.944 28.2426 12.321 29.3773 11.7673 30.3859C11.2412 31.3663 10.8674 32.0808 10.6459 32.5292C10.369 33.1453 9.92599 33.5375 9.31685 33.7058C8.7354 33.9018 8.00167 33.944 7.11564 33.8319C6.22961 33.7198 5.60663 33.3695 5.24668 32.7813C4.85904 32.1649 4.92826 31.5206 5.45434 30.848C5.81429 30.3999 6.32652 29.7276 6.99104 28.8311C7.65556 27.9066 8.40314 26.8699 9.23379 25.7212C10.0644 24.5446 10.9089 23.3399 11.7673 22.1072C12.6533 20.8465 13.484 19.6418 14.2592 18.4932C15.0345 17.3165 15.6852 16.294 16.2112 15.4255C16.765 14.529 17.1249 13.8706 17.2911 13.4504C17.4572 13.0582 17.6372 12.6239 17.831 12.1476C18.0248 11.6714 18.1217 11.1811 18.1217 10.6768C18.1217 8.82778 17.9417 7.441 17.5818 6.51649C17.2495 5.56396 16.7927 4.93358 16.2112 4.62541C15.6575 4.28923 15.0483 4.12114 14.3838 4.12114C13.8854 4.12114 13.3455 4.2192 12.764 4.4153C12.2103 4.61141 11.8503 4.79353 11.6842 4.96162C11.3796 5.26979 11.0889 5.32582 10.812 5.12971C10.5351 4.93358 10.4521 4.61141 10.5628 4.16315C10.8674 3.12659 11.4212 2.20207 12.2241 1.38961C13.0271 0.54914 14.1485 0.128906 15.5883 0.128906C17.1111 0.128906 18.3155 0.563151 19.2016 1.43164C20.0876 2.30012 20.7244 3.68689 21.1121 5.59197C21.4997 7.49702 21.6935 10.0184 21.6935 13.1562C21.6935 16.8543 21.7489 19.8099 21.8597 22.0232C21.9704 24.2364 22.1504 25.9033 22.3996 27.0241C22.6488 28.1165 22.9949 28.845 23.4379 29.2093C23.9086 29.5733 24.49 29.7555 25.1822 29.7555C25.8467 29.7555 26.4697 29.6155 27.0512 29.3354C27.6603 29.055 28.1864 28.691 28.6294 28.2426C28.8233 28.0184 29.0448 27.9346 29.2939 27.9905C29.5431 28.0466 29.737 28.2007 29.8754 28.4528C30.0415 28.677 30.0415 28.9711 29.8754 29.3354C29.294 30.6241 28.5187 31.7305 27.5496 32.6553C26.6082 33.5518 25.473 33.9999 24.1439 33.9999Z" fill="currentColor"/>
</svg>
